<mxfile host="65bd71144e">
    <diagram id="Lg_iqdcWJfdsvwvze0o4" name="ユーザー登録">
        <mxGraphModel dx="728" dy="499" grid="1" gridSize="10" guides="1" tooltips="1" connect="1" arrows="1" fold="1" page="1" pageScale="1" pageWidth="1654" pageHeight="1169" math="0" shadow="0">
            <root>
                <mxCell id="vxtPYEHjg8uwn8AjS0eD-0"/>
                <mxCell id="vxtPYEHjg8uwn8AjS0eD-1" parent="vxtPYEHjg8uwn8AjS0eD-0"/>
                <mxCell id="cadg30GRfzZOuZs_qIyL-0" value="Classname" style="swimlane;fontStyle=1;align=center;verticalAlign=top;childLayout=stackLayout;horizontal=1;startSize=26;horizontalStack=0;resizeParent=1;resizeParentMax=0;resizeLast=0;collapsible=1;marginBottom=0;" vertex="1" parent="vxtPYEHjg8uwn8AjS0eD-1">
                    <mxGeometry x="110" y="210" width="160" height="86" as="geometry"/>
                </mxCell>
                <mxCell id="cadg30GRfzZOuZs_qIyL-1" value="+ field: type" style="text;strokeColor=none;fillColor=none;align=left;verticalAlign=top;spacingLeft=4;spacingRight=4;overflow=hidden;rotatable=0;points=[[0,0.5],[1,0.5]];portConstraint=eastwest;" vertex="1" parent="cadg30GRfzZOuZs_qIyL-0">
                    <mxGeometry y="26" width="160" height="26" as="geometry"/>
                </mxCell>
                <mxCell id="cadg30GRfzZOuZs_qIyL-2" value="" style="line;strokeWidth=1;fillColor=none;align=left;verticalAlign=middle;spacingTop=-1;spacingLeft=3;spacingRight=3;rotatable=0;labelPosition=right;points=[];portConstraint=eastwest;" vertex="1" parent="cadg30GRfzZOuZs_qIyL-0">
                    <mxGeometry y="52" width="160" height="8" as="geometry"/>
                </mxCell>
                <mxCell id="cadg30GRfzZOuZs_qIyL-3" value="+ method(type): type" style="text;strokeColor=none;fillColor=none;align=left;verticalAlign=top;spacingLeft=4;spacingRight=4;overflow=hidden;rotatable=0;points=[[0,0.5],[1,0.5]];portConstraint=eastwest;" vertex="1" parent="cadg30GRfzZOuZs_qIyL-0">
                    <mxGeometry y="60" width="160" height="26" as="geometry"/>
                </mxCell>
            </root>
        </mxGraphModel>
    </diagram>
    <diagram id="6TqHx--obdq789bOGOvu" name="ログイン機能">
        <mxGraphModel dx="728" dy="499" grid="1" gridSize="10" guides="1" tooltips="1" connect="1" arrows="1" fold="1" page="1" pageScale="1" pageWidth="1654" pageHeight="1169" math="0" shadow="0">
            <root>
                <mxCell id="0"/>
                <mxCell id="1" parent="0"/>
                <mxCell id="3" value="Classname" style="swimlane;fontStyle=1;align=center;verticalAlign=top;childLayout=stackLayout;horizontal=1;startSize=26;horizontalStack=0;resizeParent=1;resizeParentMax=0;resizeLast=0;collapsible=1;marginBottom=0;" parent="1" vertex="1">
                    <mxGeometry x="110" y="210" width="160" height="86" as="geometry"/>
                </mxCell>
                <mxCell id="4" value="+ field: type" style="text;strokeColor=none;fillColor=none;align=left;verticalAlign=top;spacingLeft=4;spacingRight=4;overflow=hidden;rotatable=0;points=[[0,0.5],[1,0.5]];portConstraint=eastwest;" parent="3" vertex="1">
                    <mxGeometry y="26" width="160" height="26" as="geometry"/>
                </mxCell>
                <mxCell id="5" value="" style="line;strokeWidth=1;fillColor=none;align=left;verticalAlign=middle;spacingTop=-1;spacingLeft=3;spacingRight=3;rotatable=0;labelPosition=right;points=[];portConstraint=eastwest;" parent="3" vertex="1">
                    <mxGeometry y="52" width="160" height="8" as="geometry"/>
                </mxCell>
                <mxCell id="6" value="+ method(type): type" style="text;strokeColor=none;fillColor=none;align=left;verticalAlign=top;spacingLeft=4;spacingRight=4;overflow=hidden;rotatable=0;points=[[0,0.5],[1,0.5]];portConstraint=eastwest;" parent="3" vertex="1">
                    <mxGeometry y="60" width="160" height="26" as="geometry"/>
                </mxCell>
            </root>
        </mxGraphModel>
    </diagram>
    <diagram id="82ac6cLEA69l9S_7rWUA" name="ログアウト機能">
        <mxGraphModel dx="834" dy="499" grid="1" gridSize="10" guides="1" tooltips="1" connect="1" arrows="1" fold="1" page="1" pageScale="1" pageWidth="1654" pageHeight="1169" math="0" shadow="0">
            <root>
                <mxCell id="jA59qEOSsf7WO_mXUp3W-0"/>
                <mxCell id="jA59qEOSsf7WO_mXUp3W-1" parent="jA59qEOSsf7WO_mXUp3W-0"/>
            </root>
        </mxGraphModel>
    </diagram>
    <diagram id="DiHaQswnnCNMT63OOsjh" name="マイページ機能">
        <mxGraphModel dx="728" dy="499" grid="1" gridSize="10" guides="1" tooltips="1" connect="1" arrows="1" fold="1" page="1" pageScale="1" pageWidth="1654" pageHeight="1169" math="0" shadow="0">
            <root>
                <mxCell id="slEpZgbHzj87l-98DbKU-0"/>
                <mxCell id="slEpZgbHzj87l-98DbKU-1" parent="slEpZgbHzj87l-98DbKU-0"/>
            </root>
        </mxGraphModel>
    </diagram>
    <diagram id="yfzrB2l7N8No1Po77uS9" name="映画一覧機能">
        <mxGraphModel dx="728" dy="499" grid="1" gridSize="10" guides="1" tooltips="1" connect="1" arrows="1" fold="1" page="1" pageScale="1" pageWidth="1654" pageHeight="1169" math="0" shadow="0">
            <root>
                <mxCell id="a6uZWP_MxPUpoJaFbPkC-0"/>
                <mxCell id="a6uZWP_MxPUpoJaFbPkC-1" parent="a6uZWP_MxPUpoJaFbPkC-0"/>
            </root>
        </mxGraphModel>
    </diagram>
    <diagram id="3aJNS2Z5epkGQoNweEio" name="映画の詳細表示の機能">
        <mxGraphModel dx="728" dy="499" grid="1" gridSize="10" guides="1" tooltips="1" connect="1" arrows="1" fold="1" page="1" pageScale="1" pageWidth="1654" pageHeight="1169" math="0" shadow="0">
            <root>
                <mxCell id="G-hOq4rBb5eHm9Alu_um-0"/>
                <mxCell id="G-hOq4rBb5eHm9Alu_um-1" parent="G-hOq4rBb5eHm9Alu_um-0"/>
            </root>
        </mxGraphModel>
    </diagram>
    <diagram id="U6Uhc04Xtj-Z1C36tQnj" name="映画の場所と時間を調べられる機能">
        <mxGraphModel dx="728" dy="499" grid="1" gridSize="10" guides="1" tooltips="1" connect="1" arrows="1" fold="1" page="1" pageScale="1" pageWidth="1654" pageHeight="1169" math="0" shadow="0">
            <root>
                <mxCell id="EuvPgF0s2qTYmD_iq5tP-0"/>
                <mxCell id="EuvPgF0s2qTYmD_iq5tP-1" parent="EuvPgF0s2qTYmD_iq5tP-0"/>
            </root>
        </mxGraphModel>
    </diagram>
</mxfile>
